<svg id="face" xmlns="http://www.w3.org/2000/svg" viewBox="0 0 571 625.5">
  <title>face</title>
  <path d="M393.5,689.5a271,271,0,1,1,191.63-79.37A269.26,269.26,0,0,1,393.5,689.5Zm0-502a231,231,0,1,0,163.34,67.66A229.49,229.49,0,0,0,393.5,187.5Z" transform="translate(-107 -64)"/>
  <g>
    <circle cx="175" cy="380.5" r="42.5"/>
    <circle cx="397" cy="380.5" r="42.5"/>
  </g>
  <path d="M393.52,615.75H393a197.08,197.08,0,0,1-146.66-65.59l22.36-20A167,167,0,0,0,393,585.75h.52a167,167,0,0,0,124.3-55.6l22.36,20A197.06,197.06,0,0,1,393.52,615.75Z" transform="translate(-107 -64)"/>
  <ellipse cx="168.5" cy="210.5" rx="168.5" ry="121.5"/>
  <ellipse cx="428.5" cy="198.5" rx="142.5" ry="123.5"/>
  <ellipse cx="245.5" cy="103" rx="151.5" ry="103"/>
</svg>
